<svg version="1.1" xmlns="http://www.w3.org/2000/svg" style="display: block;" viewBox="0 0 2048 2048" width="1024" height="1024" preserveAspectRatio="none">
<defs>
	<linearGradient id="Gradient1" gradientUnits="userSpaceOnUse" x1="1746.39" y1="676.073" x2="1760.07" y2="677.113">
		<stop class="stop0" offset="0" stop-opacity="0.705882" stop-color="rgb(251,251,250)"/>
		<stop class="stop1" offset="1" stop-opacity="0.737255" stop-color="rgb(251,251,251)"/>
	</linearGradient>
	<linearGradient id="Gradient2" gradientUnits="userSpaceOnUse" x1="977.607" y1="593.173" x2="985.097" y2="576.233">
		<stop class="stop0" offset="0" stop-opacity="0.803922" stop-color="rgb(252,253,252)"/>
		<stop class="stop1" offset="1" stop-opacity="0.854902" stop-color="rgb(252,251,250)"/>
	</linearGradient>
	<linearGradient id="Gradient3" gradientUnits="userSpaceOnUse" x1="1030.57" y1="566.994" x2="1070" y2="600.263">
		<stop class="stop0" offset="0" stop-opacity="0.960784" stop-color="rgb(253,251,252)"/>
		<stop class="stop1" offset="1" stop-opacity="1" stop-color="rgb(255,255,254)"/>
	</linearGradient>
	<linearGradient id="Gradient4" gradientUnits="userSpaceOnUse" x1="1766.59" y1="521.884" x2="1670.7" y2="592.224">
		<stop class="stop0" offset="0" stop-opacity="0.498039" stop-color="rgb(250,250,248)"/>
		<stop class="stop1" offset="1" stop-opacity="0.768627" stop-color="rgb(250,250,249)"/>
	</linearGradient>
	<linearGradient id="Gradient5" gradientUnits="userSpaceOnUse" x1="1761.14" y1="836.172" x2="1858.32" y2="835.957">
		<stop class="stop0" offset="0" stop-opacity="0.243137" stop-color="rgb(254,253,251)"/>
		<stop class="stop1" offset="1" stop-opacity="0.741176" stop-color="rgb(250,250,249)"/>
	</linearGradient>
</defs>
<path transform="translate(0,0)" fill="rgb(162,207,51)" d="M 937.934 889.021 C 954.173 908.129 973.246 935.621 988.355 956.199 L 1066.57 1062.14 L 1093.02 1098 C 1097.05 1103.49 1103.53 1112.93 1107.93 1117.73 C 1059.7 1177.13 1006.44 1234.54 957.014 1293.18 C 937.974 1315.76 916.106 1338.63 898.161 1361.85 C 925.636 1360.29 956.752 1360.81 984.404 1360.86 L 1103.74 1361.07 C 1161.5 1361.28 1220.5 1371.86 1254.42 1311.87 C 1261.15 1299.96 1264.86 1288.39 1268.95 1275.4 C 1276.25 1275.15 1283.55 1274.96 1290.86 1274.83 C 1281.12 1316.95 1275.21 1360.07 1264.95 1402.14 C 1260.53 1420.24 1257.28 1439.5 1251.78 1457.28 C 1164.01 1456.47 1075.83 1457.72 988.044 1457.66 C 902.905 1457.6 816.673 1455.96 731.599 1457.21 C 827.499 1347.45 927.066 1238.28 1024.2 1129.46 L 945.819 1028.54 C 928.989 1006.54 908.602 978.114 891.145 957.28 C 905.152 934.145 922.784 911.712 937.934 889.021 z"/>
<path transform="translate(0,0)" fill="rgb(1,101,60)" d="M 1026.68 610.413 C 1028.74 606.392 1041.51 604.65 1046.43 603.641 C 1070.85 598.632 1081.29 588.524 1098 571.457 C 1104.27 582.673 1116.82 627.156 1121.53 642.108 C 1137.27 691.906 1153.28 741.622 1169.55 791.252 C 1194.4 866.493 1221.67 940.945 1246.93 1016.07 C 1271.12 1089.72 1294.65 1163.59 1317.53 1237.65 C 1335.79 1295.99 1355.53 1357.69 1370.95 1416.69 C 1346.72 1368.99 1329.17 1326.1 1308.54 1277.09 L 1267.96 1182.21 L 1097.78 776.039 L 1053.82 672.713 C 1045 652.028 1036.55 630.539 1026.68 610.413 z"/>
<path transform="translate(0,0)" fill="rgb(1,101,60)" d="M 943.358 781.391 C 956.348 781.269 969.289 781.597 982.276 781.794 C 1013.14 782.262 1044.11 781.246 1074.96 781.777 C 1082.88 797.894 1100.09 840.475 1104 857.786 C 1040.86 859.876 978.656 857.322 916.249 858.859 C 923.691 870.056 929.712 878.267 937.934 889.021 C 922.784 911.712 905.152 934.145 891.145 957.28 C 882.264 943.418 863.61 921.069 853.23 907.301 C 821.937 865.793 786.644 824.569 756.807 782.108 C 802.739 781.542 847.478 782.813 893.763 781.54 C 900.835 782.447 937.334 782.918 943.358 781.391 z"/>
<path transform="translate(0,0)" fill="rgb(162,207,51)" d="M 1959.67 1237.13 L 1960.74 1238.48 C 1959.51 1262.34 1928.15 1325.38 1915.13 1347.59 C 1857.77 1445.45 1772.99 1499.04 1665.21 1527.25 L 1664.27 1526.34 C 1663.9 1517.4 1700.91 1456.72 1707.63 1446.39 C 1727.24 1416.27 1751.68 1378.17 1777.29 1352.87 C 1825.39 1305.37 1897.49 1262.61 1959.67 1237.13 z"/>
<path transform="translate(0,0)" fill="rgb(162,207,51)" d="M 90.1937 1237 C 119.025 1247.96 147.087 1263.85 173.865 1279.05 C 271.643 1334.54 340.69 1427.07 386.624 1528.54 C 328.302 1512.05 279.375 1491.98 230.229 1456 C 174.016 1414.84 133.939 1361 108.529 1296.38 C 100.618 1276.27 93.4749 1258.78 90.1937 1237 z"/>
<path transform="translate(0,0)" fill="rgb(1,101,60)" d="M 1862.07 1520.26 L 1862.8 1521.09 C 1860.7 1531.78 1817.3 1579.25 1806.55 1589.89 C 1748.53 1647.31 1673.89 1690.26 1591.71 1698.83 C 1557.18 1702.43 1518.03 1701.26 1483.1 1701.08 L 1482.42 1700.45 L 1482.4 1698.69 C 1491.95 1683.77 1520.47 1659.83 1533.95 1647.86 C 1598.68 1590.36 1673.75 1561.18 1757.59 1543.06 C 1790.49 1535.95 1829.77 1529.39 1862.07 1520.26 z"/>
<path transform="translate(0,0)" fill="rgb(1,101,60)" d="M 187.497 1519.99 C 226.626 1531.28 267.461 1537.76 307.539 1546.31 C 407.209 1567.57 505.712 1621.23 570.303 1701.95 C 556.202 1700.73 536.441 1700.74 522.082 1700.61 C 475.829 1700.21 440.245 1698.62 395.817 1684.54 C 325.538 1662.26 271.511 1623.46 223.462 1568.03 C 210.199 1552.73 196.902 1538.27 187.497 1519.99 z"/>
<path transform="translate(0,0)" fill="rgb(162,207,51)" d="M 1319.6 1768.35 C 1333.95 1763.09 1348.5 1760.16 1362.72 1756.02 C 1441 1733.22 1516.09 1738.25 1595.47 1752.84 C 1621.03 1757.54 1643.79 1764.12 1668.28 1769.17 C 1528.79 1860.56 1410.4 1870.63 1261.54 1788.5 C 1266.45 1786.59 1271.45 1784.56 1276.42 1782.84 L 1280.01 1781.75 C 1287.43 1778.7 1292.58 1776.57 1300.24 1774.41 L 1315.75 1769.4 L 1319.6 1768.35 z"/>
<path transform="translate(0,0)" fill="rgb(162,207,51)" d="M 561.51 1740.43 C 642.648 1736.8 710.23 1760.86 786.07 1787.32 C 736.869 1824.6 668.575 1839.16 608.241 1843.67 C 537.564 1848.62 438.507 1812.37 383.416 1768.56 C 400.923 1763.25 421.036 1760.41 439.01 1756.81 C 480.855 1748.4 518.938 1742.68 561.51 1740.43 z"/>
<path transform="translate(0,0)" fill="rgb(57,172,166)" d="M 71.0285 914.413 C 93.3297 929.886 163.65 1018.47 179.861 1042.42 C 224.355 1108.15 239.449 1200.06 247.194 1277.85 C 234.008 1272.37 186.631 1232.65 175.405 1220.67 C 88.8896 1128.3 69.5806 1035.62 71.0285 914.413 z"/>
<path transform="translate(0,0)" fill="rgb(1,101,60)" d="M 1976.14 913.651 C 1980.88 922.777 1976.65 995.375 1974.92 1010.03 C 1973.43 1022.66 1971.2 1035.19 1968.24 1047.55 C 1946.32 1139.25 1885.95 1227.66 1805.12 1277.15 C 1800.85 1273.2 1810.71 1210.59 1812.26 1200.75 C 1824.88 1120.58 1860.01 1047.22 1912.79 985.735 C 1933.55 961.548 1955.41 938.056 1976.14 913.651 z"/>
<path transform="translate(0,0)" fill="rgb(1,101,60)" d="M 1067.14 1806.78 C 1167.26 1796.46 1242.65 1816.93 1329.3 1866.55 C 1352.72 1879.97 1385.77 1900.63 1409.52 1911.8 C 1365.61 1926.21 1330.3 1933.93 1283.78 1932.28 C 1193.41 1929.08 1114.68 1884.46 1045.31 1829.67 C 1040.76 1826.07 1030.06 1818.05 1026.85 1813.93 C 1039.96 1808.29 1053.16 1809.55 1067.14 1806.78 z"/>
<path transform="translate(0,0)" fill="rgb(57,172,166)" d="M 982.291 1806.28 C 988.096 1799.05 987.739 1797.44 991.575 1789.08 L 991.604 1790.5 C 991.687 1796.84 991.824 1797.37 988.794 1802.85 C 987.362 1805.44 986.203 1806.13 987.006 1807.78 C 997.642 1810.12 1015.77 1813.64 1026.26 1814.08 C 984.928 1841.85 951.426 1872.24 906.542 1894.86 C 821.889 1937.53 730.115 1942.38 640.387 1913.24 C 671.004 1896.6 699.647 1878.16 729.767 1860.99 C 784.852 1829.58 846.51 1808.2 910.155 1805.05 C 934.183 1803.85 958.213 1805.19 982.291 1806.28 z"/>
<path transform="translate(0,0)" fill="rgb(57,172,166)" d="M 1896.95 626.939 C 1930.33 710.365 1946.88 811.355 1909.96 896.433 C 1903.71 910.849 1851.53 1012.3 1839.58 1006.93 C 1838.43 1004.32 1838.11 1003.83 1837.55 1001.07 C 1836.7 991.738 1833.87 983.82 1831.4 974.762 L 1830.87 955.941 L 1830.06 946.171 C 1829.59 931.636 1827.47 916.515 1827.07 901.562 C 1826.52 881.042 1827.68 861.449 1827.95 841.034 C 1829.67 828.458 1831.64 815.918 1833.86 803.42 L 1835.71 794.304 C 1837.11 786.876 1838.81 779.681 1840.53 772.319 L 1843.84 758.857 L 1847.81 745.294 C 1850.35 739.513 1855.95 720.285 1858.94 712.209 C 1860.65 705.243 1864.53 698.242 1866.37 690.277 C 1870.34 683.919 1875.37 672.108 1878.71 665.02 L 1896.95 626.939 z"/>
<path transform="translate(0,0)" fill="rgb(1,101,60)" d="M 154.835 629.652 C 159.655 633.476 175.877 676.925 179.932 686.039 C 216.111 767.361 230.583 855.664 221.072 944.261 C 218.583 967.445 217.031 987.892 210.005 1010.91 C 207.044 1007.36 204.074 1003.49 201.182 999.857 C 174.343 961.041 154.297 931.794 136.967 887.711 C 103.688 803.057 119.288 710.712 154.835 629.652 z"/>
<path transform="translate(0,0)" fill="rgb(1,101,60)" d="M 807.931 119.42 L 808.725 119.835 L 808.624 121.394 C 801.634 132.429 793.254 142.561 785.74 153.074 C 740.166 216.443 686.083 279.602 616.667 317.721 C 581.883 336.822 543.908 352.793 508.217 371.094 L 507.243 370.296 C 507.49 366.83 512.344 356.132 513.873 352.433 C 528.063 318.104 543.137 286.874 564.632 256.488 C 618.592 180.204 717.27 134.072 807.931 119.42 z"/>
<path transform="translate(0,0)" fill="rgb(162,207,51)" d="M 1240.99 119.554 C 1284.34 121.55 1361.29 154.42 1399.02 176.423 C 1465.32 215.086 1523.77 297.734 1542.19 372.584 C 1530.28 365.758 1518.86 358.419 1506.62 352.2 C 1479.44 338.388 1450.36 325.92 1423.92 311.013 C 1363.51 276.964 1319.68 225.351 1278.88 170.425 C 1266.59 153.877 1252.69 136.575 1240.99 119.554 z"/>
<path transform="translate(0,0)" fill="rgb(1,101,60)" d="M 310.445 363.751 C 310.665 364.024 310.885 364.298 311.104 364.572 C 313.111 380.77 313.634 409.478 314.641 424.484 C 323.376 554.679 309.708 629.146 251.083 746.215 C 248.821 739.283 246.672 732.212 244.492 725.245 C 233.658 696.17 226.01 666.007 221.681 635.283 C 207.504 527.352 247.389 446.12 310.445 363.751 z"/>
<path transform="translate(0,0)" fill="rgb(162,207,51)" d="M 1740.29 363.694 C 1805.02 445.527 1839.62 524.048 1827.38 631.772 C 1825.64 647.099 1822.49 667.075 1819.12 681.968 C 1816.73 692.549 1810.97 707.922 1807.7 718.597 C 1806.31 721.815 1805 724.555 1804.07 727.953 C 1802.07 733.608 1800.03 739.251 1797.95 744.88 L 1795.81 742.205 C 1792 731.579 1785.06 716.971 1780.44 706.404 C 1773.06 689.911 1766.38 673.113 1760.42 656.054 L 1759.64 653.857 L 1758.75 651.215 C 1753.86 638.775 1752.3 633.846 1749.69 620.621 L 1749.52 619.042 L 1748.75 616.11 C 1747.12 606.469 1742.99 592.355 1740.74 582.143 L 1736.45 558.939 C 1733.86 530.644 1733.49 510.259 1732.92 482.07 L 1733.35 466.031 L 1734.05 463.33 C 1733.86 462.133 1734 457.988 1734.02 456.542 C 1734.54 428.163 1738.07 392.434 1740.29 363.694 z"/>
<path transform="translate(0,0)" fill="rgb(57,172,166)" d="M 1306.24 1736.83 C 1309.52 1729.78 1325.32 1711.51 1331.9 1699.32 C 1369.64 1629.44 1413.89 1557 1475.71 1505.74 C 1496.35 1488.63 1528.77 1466.89 1551.98 1452.54 C 1531.81 1598.6 1453.9 1701.32 1307.01 1737.71 L 1306.24 1736.83 z"/>
<path transform="translate(0,0)" fill="rgb(1,101,60)" d="M 499.541 1454.39 C 527.38 1468.78 554.492 1490.1 578.312 1510.28 C 627.496 1551.97 662.678 1606.81 695.966 1661.3 C 712.022 1687.59 722.552 1713.39 742.943 1737.26 C 598.56 1704.23 518.268 1597.08 499.541 1454.39 z"/>
<path transform="translate(0,0)" fill="rgb(162,207,51)" d="M 358.42 523.204 C 355.813 475.336 354.042 459.593 362.181 410.846 C 378.563 312.731 445.871 246.511 524.408 191.81 C 508.171 250.493 488.8 319.863 464.161 375.19 C 450.544 405.766 418.297 453.441 397.142 479.826 C 389.708 487.405 384.993 493.357 378.447 501.612 C 371.519 509.78 365.906 515.632 358.42 523.204 z"/>
<path transform="translate(0,0)" fill="rgb(1,101,60)" d="M 1527.55 193.99 C 1622.7 256.508 1685.58 330.975 1693.26 449.48 C 1693.04 463.729 1692.53 477.972 1691.72 492.2 C 1690.43 499.782 1690.93 506.534 1689.41 514.277 L 1689.03 519.316 L 1687.09 519.247 C 1676.44 511.044 1669.41 495.576 1659.11 487.971 C 1627.23 449.509 1587.8 386.496 1571.54 339.745 C 1555.5 293.643 1542.04 241.102 1527.55 193.99 z"/>
<path transform="translate(0,0)" fill="rgb(162,207,51)" d="M 361.464 1366.01 C 356.547 1315.73 359.004 1264.99 368.757 1215.41 C 415.014 1274.68 443.515 1334.96 457.723 1409.54 C 467.858 1462.74 464.725 1510.49 463.003 1564.16 C 414.9 1516.41 374.323 1446.39 363.412 1379.12 L 362.563 1372.05 C 362.316 1369.57 362.045 1368.46 361.464 1366.01 z"/>
<path transform="translate(0,0)" fill="rgb(1,101,60)" d="M 1680.48 1216.75 C 1686.14 1223.74 1691.16 1301.05 1691.65 1314.08 C 1695.2 1407.75 1655.26 1491.61 1592.69 1559.07 L 1587.77 1564.17 C 1581.57 1438.29 1598.7 1317.9 1680.48 1216.75 z"/>
<path transform="translate(0,0)" fill="rgb(162,207,51)" d="M 1027.22 1771.16 C 1039.44 1759.71 1056.96 1748.24 1069.78 1737.15 C 1123.18 1691 1171.94 1657.1 1240.7 1636.93 C 1270.45 1628.21 1311.3 1621.57 1339.57 1611.58 C 1304.02 1677.9 1237.73 1738.54 1165.12 1761.07 C 1142.76 1768 1119.34 1771.36 1096.12 1773.98 C 1088.89 1774.8 1081.67 1774.35 1074.42 1775.46 C 1073.93 1777.54 1073.89 1777.61 1073.69 1779.78 L 1073.25 1777 C 1069.7 1773.6 1037.35 1773 1027.22 1771.16 z"/>
<path transform="translate(0,0)" fill="rgb(162,207,51)" d="M 1690.39 956.716 C 1696.61 961.986 1705.71 974.61 1710.71 981.264 C 1769.75 1059.85 1797.7 1160.39 1770.5 1256.77 C 1767.7 1266.68 1764.46 1278.4 1760.01 1287.86 C 1757.47 1294.25 1753.98 1301.15 1750.97 1307.41 C 1742.93 1292.39 1733.11 1258.75 1726.52 1241.6 C 1697.46 1166 1679.84 1099.18 1686.24 1017.52 C 1687.77 998.006 1687.69 977.039 1690.39 956.716 z"/>
<path transform="translate(0,0)" fill="rgb(1,101,60)" d="M 359.373 958.589 C 364.137 970.742 361.78 992.558 363.392 1006 C 376.288 1113.59 339.284 1209.42 300.117 1308.72 L 292.651 1291.46 C 253.751 1188.88 265.865 1095.53 325.77 1004.29 C 336.432 988.053 347.736 974.006 359.373 958.589 z"/>
<path transform="translate(0,0)" fill="rgb(1,101,60)" d="M 706.905 1611.74 C 737.615 1621.92 776.714 1627.9 808.875 1637.33 C 875.189 1656.76 923.106 1693.44 976.378 1735.86 C 989.015 1745.92 1010.84 1760.81 1021.86 1770.95 C 1018.31 1771.42 1014.15 1771.39 1011.59 1773.3 C 970.628 1773.11 943.202 1775.15 902.235 1765.22 C 816.107 1744.34 751.919 1685.61 706.905 1611.74 z"/>
<path transform="translate(0,0)" fill="rgb(162,207,51)" d="M 997.958 434.067 C 998.113 435.077 997.944 434.364 999.027 435.985 C 1004.25 436.671 1011.99 435.003 1017.94 434.75 C 1024.1 434.489 1043.78 438.06 1047.48 436.466 L 1047 431.552 C 1049.19 428.855 1050.34 428.654 1053.52 427.298 L 1054.62 426.842 C 1053.49 431.034 1052.46 433.351 1053.03 437.532 C 1055.52 440.792 1058.37 441.37 1061.87 443.183 C 1096.45 461.1 1111.38 506.815 1094.73 541.84 C 1091.87 547.874 1087.33 553.763 1085.58 560.204 L 1091.2 565.512 C 1088.06 564.514 1083.92 562.719 1080.98 563.481 C 1060.21 582.077 1044.16 588.286 1016.73 587.861 C 1014.47 587.038 1008 585.981 1004.76 585.14 C 989.204 581.107 982.33 576.106 969.723 566.765 C 936.22 535.036 940.648 480.141 974.169 450.185 C 979.426 445.487 994.793 439.787 997.958 434.067 z M 1027.99 551.363 C 1033.64 550.808 1039.11 549.045 1044.01 546.194 C 1056.68 538.836 1064.24 525.091 1063.69 510.457 C 1063.13 495.824 1054.54 482.692 1041.36 476.316 C 1040.35 475.826 1039.31 475.38 1038.26 474.978 C 1026.27 470.39 1012.79 471.908 1002.11 479.05 C 997.918 481.853 994.301 485.431 991.453 489.591 C 983.505 501.199 982.314 516.152 988.322 528.871 C 993.45 539.725 1003.22 547.667 1014.9 550.464 C 1019.18 551.49 1023.61 551.794 1027.99 551.363 z"/>
<path transform="translate(0,0)" fill="rgb(252,251,251)" fill-opacity="0.941176" d="M 1041.36 476.316 C 1054.54 482.692 1063.13 495.824 1063.69 510.457 C 1064.24 525.091 1056.68 538.836 1044.01 546.194 C 1039.85 543.585 1038.6 542.285 1033.9 541.941 C 1030.2 543.909 1031.43 543.088 1028.93 546.887 C 1028.87 548.014 1028.88 550.515 1027.99 551.363 C 1023.61 551.794 1019.18 551.49 1014.9 550.464 C 1014.28 547.477 1014.51 547.322 1012.63 545.023 C 1010.52 545.476 1010.38 545.49 1008.31 545.677 C 1005.99 542.466 1009.85 544.271 1009.92 538.291 L 1006.84 536.005 C 1002.76 522.554 1005.48 514.447 1008.6 501.296 C 1006.66 498.431 1004.22 495.417 1002.09 492.653 C 1018.89 472.969 1021.45 487.84 1041.36 476.316 z"/>
<path transform="translate(0,0)" fill="rgb(252,251,251)" fill-opacity="0.752941" d="M 1002.11 479.05 C 1015.19 479.427 1009.7 476.619 1020.55 475.002 C 1026.95 474.048 1029.98 476.891 1038.26 474.978 C 1039.31 475.38 1040.35 475.826 1041.36 476.316 C 1021.45 487.84 1018.89 472.969 1002.09 492.653 C 1004.22 495.417 1006.66 498.431 1008.6 501.296 C 1005.48 514.447 1002.76 522.554 1006.84 536.005 L 1009.92 538.291 C 1009.85 544.271 1005.99 542.466 1008.31 545.677 C 1010.38 545.49 1010.52 545.476 1012.63 545.023 C 1014.51 547.322 1014.28 547.477 1014.9 550.464 C 1003.22 547.667 993.45 539.725 988.322 528.871 C 996.086 509.233 986.785 501.406 991.453 489.591 C 994.301 485.431 997.918 481.853 1002.11 479.05 z"/>
<path transform="translate(0,0)" fill="rgb(252,251,251)" fill-opacity="0.313725" d="M 988.322 528.871 C 982.314 516.152 983.505 501.199 991.453 489.591 C 986.785 501.406 996.086 509.233 988.322 528.871 z"/>
<path transform="translate(0,0)" fill="rgb(252,251,251)" fill-opacity="0.698039" d="M 1002.11 479.05 C 1012.79 471.908 1026.27 470.39 1038.26 474.978 C 1029.98 476.891 1026.95 474.048 1020.55 475.002 C 1009.7 476.619 1015.19 479.427 1002.11 479.05 z"/>
<path transform="translate(0,0)" fill="rgb(252,251,251)" fill-opacity="0.858824" d="M 1027.99 551.363 C 1028.88 550.515 1028.87 548.014 1028.93 546.887 C 1031.43 543.088 1030.2 543.909 1033.9 541.941 C 1038.6 542.285 1039.85 543.585 1044.01 546.194 C 1039.11 549.045 1033.64 550.808 1027.99 551.363 z"/>
<path transform="translate(0,0)" fill="rgb(162,207,51)" d="M 410.621 715.844 C 414.015 719.567 398.86 754.67 397.098 761.947 C 372.617 863.072 320.132 948.375 246.121 1021 C 240.768 1011.86 250.876 932.313 254.49 916.289 C 266.263 864.088 291.836 811.243 330.356 773.744 C 351.446 753.213 385.449 731.841 410.621 715.844 z"/>
<path transform="translate(0,0)" fill="rgb(1,101,60)" d="M 1636.71 714.092 C 1651.28 723.648 1668.78 733.507 1682.52 743.835 C 1748.92 793.759 1783.27 844.642 1796.35 926.243 C 1796.58 940.649 1799.83 955.363 1800.07 968.36 L 1800.43 976.448 L 1801.1 982.413 C 1801.3 988.502 1802.52 999.06 1803.56 1005.17 C 1803.14 1009.02 1803.96 1018.44 1804.23 1022.74 C 1754.24 974.276 1694.63 892.149 1673.16 826.147 C 1660.08 785.933 1653.76 755.07 1636.71 714.092 z"/>
<path transform="translate(0,0)" fill="rgb(162,207,51)" d="M 1511.35 526.01 C 1566.77 532.016 1598.57 546.097 1646.66 571.6 C 1649.53 574.032 1650.18 574.372 1653.54 576.169 C 1656.48 578.443 1659.62 580.992 1662.7 583.021 L 1664.2 584.165 C 1666.92 586.467 1679.71 597.459 1681.82 598.393 C 1686.46 602.898 1709.44 629.049 1711.1 630.181 C 1712.5 632.348 1718.62 642.138 1720.23 643.165 C 1724.65 652.071 1729.71 660.687 1734.63 669.325 C 1739.89 679.335 1742.82 686.033 1747.25 696.252 L 1747.48 697.304 C 1752.05 711.045 1760.51 734.62 1761.64 748.137 C 1743.52 734.018 1723.86 725.43 1706.03 712.732 C 1673.38 688.359 1635.07 665.295 1606.02 636.761 C 1573.63 604.954 1537.12 563.348 1511.35 526.01 z"/>
<path transform="translate(0,0)" fill="rgb(1,101,60)" d="M 534.64 526.244 L 536.251 526.519 C 535.913 531.599 513.728 556.938 509.617 562.305 C 467.41 617.395 417.481 662.779 359.99 701.493 C 337.103 716.905 306.866 731.831 286.603 749.262 L 285.644 749.609 L 284.593 749.009 C 284.926 725.376 316.114 661.478 330.28 641.28 C 381.683 567.985 451.834 541.991 534.64 526.244 z"/>
<path transform="translate(0,0)" fill="rgb(162,207,51)" d="M 419.746 484.075 C 424.606 476.588 427.884 474.284 434.212 468.344 C 507.137 399.882 590.614 367.339 690.965 382.718 C 663.595 406.559 632.69 424.944 603.69 447.132 C 547.945 489.782 475.705 498.801 410.455 519.291 C 406.051 520.674 398.471 522.707 394.028 522.662 C 396.269 510.479 412.305 495.834 419.746 484.075 z"/>
<path transform="translate(0,0)" fill="rgb(57,172,166)" d="M 835.215 926.366 C 847.007 936.378 867.184 967.269 876.192 980.588 C 868.884 1001.15 858.843 1022.31 849.797 1042.29 L 818.102 1113.04 C 776.57 1204.8 734.333 1296.24 691.393 1387.35 L 674.376 1419.77 C 690.659 1365 707.805 1310.49 725.805 1256.26 C 744.29 1198.59 763.096 1141.03 782.222 1083.57 L 812.194 994.096 C 818.893 973.509 827.062 945.891 835.215 926.366 z"/>
<path transform="translate(0,0)" fill="rgb(1,101,60)" d="M 1357.59 382.564 C 1384.01 379.401 1399.76 377.052 1427.4 379.046 C 1510.23 385.023 1579.24 428.191 1632.53 489.444 C 1640.72 499.762 1650.01 511.407 1656.13 523.052 L 1652.78 524.385 L 1652.16 524.325 C 1626.29 512.183 1573.78 502.437 1544.59 493.123 C 1518.01 484.696 1483.74 474.001 1461.33 457.407 C 1427.86 432.622 1390 408.434 1357.59 382.564 z"/>
<path transform="translate(0,0)" fill="rgb(57,172,166)" d="M 890.108 760.465 C 886.622 752.746 940.612 601.162 945.61 580.403 C 946.294 577.56 947.264 574.607 949.947 573.135 L 952.198 574.459 C 965.2 592.708 990.177 601.36 1010.87 606.358 C 1015.31 606.76 1017.66 606.173 1020.62 608.619 L 1022.36 614.324 C 1013.85 617.344 966.258 749.564 955.18 759.261 L 953.29 759.735 C 940.172 758.516 901.781 756.657 890.108 760.465 z"/>
<path transform="translate(0,0)" fill="url(#Gradient5)" d="M 1826.85 710.406 C 1833.47 701.794 1853.69 682.541 1864.62 683.975 C 1866.86 687.553 1866.1 685.597 1866.37 690.277 C 1864.53 698.242 1860.65 705.243 1858.94 712.209 C 1857.91 709.001 1857.8 707.429 1855.11 705.443 C 1848.88 705.436 1847.64 714.049 1846.61 719.016 L 1846.33 720.366 C 1840.99 724.815 1837.25 728.617 1836.75 735.83 C 1836.34 741.735 1835.86 746.2 1842.32 748.093 C 1844.84 747.274 1846.04 747.204 1847.81 745.294 L 1843.84 758.857 C 1842.42 755.881 1842.66 755.59 1839.91 753.979 C 1831.77 754.618 1832.56 766.286 1838.17 771.769 L 1840.53 772.319 C 1838.81 779.681 1837.11 786.876 1835.71 794.304 C 1834.92 791.217 1834.86 789.349 1832.38 787.463 C 1828.02 790.086 1827.13 798.726 1827.72 803.463 L 1828.71 804.732 C 1830.15 804.566 1833.74 803.427 1833.86 803.42 C 1831.64 815.918 1829.67 828.458 1827.95 841.034 C 1816.26 846.1 1817.98 876.755 1820.91 886.99 C 1820.76 889.808 1820.35 903.219 1819.6 904.763 C 1815.86 912.44 1809.3 922.512 1811.67 931.921 C 1813.91 940.808 1822.02 951.13 1824.41 960.487 C 1827.09 961.52 1825.73 961.382 1828.63 960.789 L 1829.08 958.837 L 1830.87 955.941 L 1831.4 974.762 L 1828.37 973.803 C 1825.91 975.917 1825.36 978.792 1824.24 981.956 C 1821.61 983.5 1823.07 983.143 1819.58 982.244 C 1812.95 976.453 1813.39 963.477 1800.43 976.448 L 1800.07 968.36 L 1801.55 971.828 L 1802.89 970.568 C 1805.27 961.326 1800.56 942.495 1800.42 932.332 C 1800.3 923.349 1801.54 914.394 1801.24 905.54 C 1799.53 889.671 1792.85 894.646 1796.9 870.489 C 1794.58 867.418 1788.25 862.054 1786.79 859.12 C 1782.52 850.569 1779.87 839.068 1777.16 829.802 C 1776.13 829.207 1775.11 828.611 1774.09 828.015 C 1769.79 815.397 1761.58 803.708 1758.79 791.196 C 1756.27 779.89 1765.19 761.267 1765.11 751.659 C 1777 756.515 1800.88 769.975 1809.51 753.769 C 1812.28 748.57 1813.35 732.735 1811.6 727.095 C 1809.01 724.577 1810.47 725.183 1807.37 724.635 L 1805.6 727.294 L 1804.07 727.953 C 1805 724.555 1806.31 721.815 1807.7 718.597 C 1814.17 715.523 1808.91 710.942 1826.85 710.406 z"/>
<path transform="translate(0,0)" fill="url(#Gradient4)" d="M 1698.56 498.426 C 1698.55 492.131 1697.69 486.689 1698.37 480.413 L 1699.42 480.558 L 1699.84 482.983 L 1703.34 482.023 L 1703.76 483.478 C 1702.6 487.626 1699.63 495.239 1703.11 498.408 C 1704.55 496.34 1703.9 493.161 1703.74 490.273 C 1705.01 494.125 1705.28 495.05 1707.28 498.513 L 1708.99 498.772 C 1716.18 489.798 1712.36 468.867 1732.02 473.031 C 1732.25 475.916 1732.4 479.283 1732.92 482.07 C 1733.49 510.259 1733.86 530.644 1736.45 558.939 C 1731.15 564.373 1727.26 581.818 1728.61 589.288 L 1729.69 590.097 L 1731.12 588.126 C 1739.85 593.344 1730.03 619.633 1748.75 616.11 L 1749.52 619.042 C 1746.51 622.792 1747.69 622.106 1741.5 622.854 C 1743.09 631.368 1743.66 633.42 1742.06 641.803 C 1744.7 645.397 1749.5 650.809 1749.73 654.858 C 1748.09 659.477 1745.36 662.699 1742.5 666.709 L 1740.16 667.567 C 1735.83 661.579 1745.08 657.456 1731.78 650.63 C 1730.93 647.178 1729.45 641.302 1727.81 638.167 C 1719.82 635.927 1717.64 635.582 1711.1 630.181 C 1709.44 629.049 1686.46 602.898 1681.82 598.393 C 1686.88 595.261 1684.43 598.73 1691.22 598.37 L 1691.24 596.407 C 1687.14 591.794 1674.5 579.887 1668.5 578.685 C 1667.16 580.605 1665.75 582.406 1664.2 584.165 L 1662.7 583.021 L 1662.12 579.943 C 1667.32 575.813 1658.88 569.651 1658.99 560.771 C 1663.75 557.397 1674.64 552.557 1667.41 544.074 C 1664.83 546.185 1664.63 547.246 1662.86 550.214 L 1660.84 549.787 C 1660.16 542.674 1660.04 529.63 1653.92 525.132 L 1652.78 524.385 L 1656.13 523.052 L 1656.93 521.933 C 1656.67 518.181 1656.67 517.83 1657.17 514.104 C 1660.93 517.087 1659.73 515.897 1660.96 521.797 L 1662.42 521.901 C 1662.58 517.912 1662.75 517.325 1661.69 513.572 L 1659.83 512.613 L 1657.17 514.104 C 1648.01 510.04 1654.44 501.482 1642.79 491.534 L 1645.54 489.775 C 1648.06 491.308 1648.52 491.001 1651.2 490.304 C 1650.54 488.601 1651.05 489.311 1649.67 488.164 L 1650.38 487.991 C 1659.43 494.62 1673.11 514.586 1685.51 523.168 L 1688 522.021 C 1688.57 523.923 1688.61 523 1687.95 524.794 L 1688.9 524.15 C 1688.29 521.632 1688.36 521.46 1687.09 519.247 L 1689.03 519.316 C 1690.02 519.43 1690.71 519.026 1691.81 518.67 C 1694.77 514.71 1693.64 506.418 1698.56 498.426 z M 1659.47 507.245 C 1657.52 502.691 1657.64 502.436 1652.36 501.544 C 1654.62 505.416 1654.47 506.909 1659.47 507.245 z"/>
<path transform="translate(0,0)" fill="rgb(252,251,251)" fill-opacity="0.737255" d="M 1652.36 501.544 C 1657.64 502.436 1657.52 502.691 1659.47 507.245 C 1654.47 506.909 1654.62 505.416 1652.36 501.544 z"/>
<path transform="translate(0,0)" fill="rgb(162,207,51)" d="M 1197.98 776.5 C 1219.82 775.138 1249.68 775.975 1272.02 775.954 L 1272.1 881.882 C 1272.11 898.533 1272.9 924.145 1271.63 940.225 C 1269.1 941.691 1265.02 941.212 1261.88 941.165 C 1260.64 941.198 1259.18 941.326 1257.92 941.196 C 1242.91 939.634 1261.55 883.854 1244.21 865.123 C 1236.4 856.695 1226.28 856.785 1215.67 856.232 C 1206.77 835.009 1193.47 798.297 1187.39 776.817 L 1197.98 776.5 z"/>
<path transform="translate(0,0)" fill="rgb(57,172,166)" d="M 990.505 318.422 C 1012.04 318.852 1033.58 318.925 1055.12 318.642 C 1056.06 349.074 1057.57 388.45 1056.47 418.419 C 1055.93 421.254 1055.48 424.094 1054.62 426.842 L 1053.52 427.298 C 1050.34 428.654 1049.19 428.855 1047 431.552 L 1047.48 436.466 C 1043.78 438.06 1024.1 434.489 1017.94 434.75 C 1011.99 435.003 1004.25 436.671 999.027 435.985 C 997.944 434.364 998.113 435.077 997.958 434.067 C 995.563 426.642 995.105 426.149 990.894 419.721 C 990.631 385.94 991.028 352.245 990.505 318.422 z"/>
<path transform="translate(0,0)" fill="rgb(252,251,251)" d="M 990.894 419.721 C 1019.71 411.941 1027.71 410.59 1056.47 418.419 C 1055.93 421.254 1055.48 424.094 1054.62 426.842 L 1053.52 427.298 C 1050.34 428.654 1049.19 428.855 1047 431.552 L 1047.48 436.466 C 1043.78 438.06 1024.1 434.489 1017.94 434.75 C 1011.99 435.003 1004.25 436.671 999.027 435.985 C 997.944 434.364 998.113 435.077 997.958 434.067 C 995.563 426.642 995.105 426.149 990.894 419.721 z"/>
<path transform="translate(0,0)" fill="rgb(252,251,251)" fill-opacity="0.968627" d="M 1021.86 1770.95 L 1027.22 1771.16 C 1037.35 1773 1069.7 1773.6 1073.25 1777 L 1073.69 1779.78 C 1071.98 1791.97 1069.29 1791.8 1065.61 1802.78 C 1065.39 1803.41 1066.73 1805.98 1067.14 1806.78 C 1053.16 1809.55 1039.96 1808.29 1026.85 1813.93 L 1026.26 1814.08 C 1015.77 1813.64 997.642 1810.12 987.006 1807.78 C 986.203 1806.13 987.362 1805.44 988.794 1802.85 C 991.824 1797.37 991.687 1796.84 991.604 1790.5 L 991.575 1789.08 C 1001.97 1783.95 1010.73 1789.12 1011.59 1773.3 C 1014.15 1771.39 1018.31 1771.42 1021.86 1770.95 z"/>
<path transform="translate(0,0)" fill="url(#Gradient3)" d="M 1016.73 587.861 C 1044.16 588.286 1060.21 582.077 1080.98 563.481 C 1083.92 562.719 1088.06 564.514 1091.2 565.512 C 1094.26 567.833 1095.32 568.721 1098 571.457 C 1081.29 588.524 1070.85 598.632 1046.43 603.641 C 1041.51 604.65 1028.74 606.392 1026.68 610.413 C 1024.82 612.252 1024.42 612.772 1022.36 614.324 L 1020.62 608.619 C 1017.66 606.173 1015.31 606.76 1010.87 606.358 C 1011.4 600.448 1009.38 593.322 1010.1 589.968 C 1012.9 587.268 1011.77 588.09 1016.73 587.861 z"/>
<path transform="translate(0,0)" fill="rgb(252,251,251)" fill-opacity="0.886275" d="M 1760.42 656.054 C 1766.38 673.113 1773.06 689.911 1780.44 706.404 C 1785.06 716.971 1792 731.579 1795.81 742.205 L 1793.46 743.193 C 1789.06 740.337 1780.58 718.375 1775.2 712.632 L 1773.04 711.854 C 1760.57 719.336 1772.73 743.243 1764.24 750.656 L 1761.64 748.137 C 1760.51 734.62 1752.05 711.045 1747.48 697.304 C 1748.41 690.8 1759.08 687.631 1762.29 681.26 C 1768.09 669.742 1751.66 668.243 1760.42 656.054 z"/>
<path transform="translate(0,0)" fill="rgb(252,251,251)" fill-opacity="0.988235" d="M 890.108 760.465 C 901.781 756.657 940.172 758.516 953.29 759.735 C 946.981 767.32 944.568 770.984 943.358 781.391 C 937.334 782.918 900.835 782.447 893.763 781.54 C 896.024 772.014 899.166 766.798 890.108 760.465 z"/>
<path transform="translate(0,0)" fill="rgb(252,251,251)" fill-opacity="0.301961" d="M 1269.89 1771.51 L 1270.83 1769.91 C 1275.38 1762.36 1274.29 1758.57 1276.07 1753.45 C 1278.28 1747.09 1300.38 1741.71 1306.24 1736.83 L 1307.01 1737.71 C 1311.37 1742 1314.95 1746.86 1318.74 1751.68 C 1319.06 1757.09 1319.54 1762.97 1319.6 1768.35 L 1315.75 1769.4 C 1315.61 1765.94 1315.75 1766.15 1313.87 1763.27 C 1308.91 1761.17 1292.76 1765.69 1287.05 1766.89 C 1284.92 1767.34 1282.48 1770.11 1281.09 1771.88 C 1279.16 1775.93 1279.11 1775.71 1279.1 1780.13 L 1280.01 1781.75 L 1276.42 1782.84 L 1272.6 1781.74 C 1270.25 1778.92 1270.32 1775.28 1269.89 1771.51 z"/>
<path transform="translate(0,0)" fill="url(#Gradient2)" d="M 969.723 566.765 C 982.33 576.106 989.204 581.107 1004.76 585.14 C 1008 585.981 1014.47 587.038 1016.73 587.861 C 1011.77 588.09 1012.9 587.268 1010.1 589.968 C 1009.38 593.322 1011.4 600.448 1010.87 606.358 C 990.177 601.36 965.2 592.708 952.198 574.459 C 956.277 572.044 964.927 568.753 969.723 566.765 z"/>
<path transform="translate(0,0)" fill="rgb(252,251,251)" fill-opacity="0.745098" d="M 397.142 479.826 C 406.967 478.595 412.219 476.468 419.746 484.075 C 412.305 495.834 396.269 510.479 394.028 522.662 C 381.805 525.478 380.852 510.359 378.447 501.612 C 384.993 493.357 389.708 487.405 397.142 479.826 z"/>
<path transform="translate(0,0)" fill="rgb(252,251,251)" fill-opacity="0.905882" d="M 1820.91 886.99 C 1817.98 876.755 1816.26 846.1 1827.95 841.034 C 1827.68 861.449 1826.52 881.042 1827.07 901.562 C 1827.47 916.515 1829.59 931.636 1830.06 946.171 C 1827.04 946.178 1827.34 945.883 1824.33 944.531 C 1824.38 941.298 1819.78 931.762 1819.39 924.865 C 1818.74 913.541 1824.05 896.795 1820.91 886.99 z"/>
<path transform="translate(0,0)" fill="rgb(252,251,251)" fill-opacity="0.564706" d="M 1742.06 641.803 C 1743.66 633.42 1743.09 631.368 1741.5 622.854 C 1747.69 622.106 1746.51 622.792 1749.52 619.042 L 1749.69 620.621 C 1746.87 629.279 1745.82 648.603 1755.97 652.073 L 1758.75 651.215 L 1759.64 653.857 C 1753.13 658.388 1759.61 660.461 1743.86 666.166 C 1746.02 674.734 1745.33 677.543 1745.45 686.294 C 1745.46 687.486 1747.08 693.242 1747.25 696.252 C 1742.82 686.033 1739.89 679.335 1734.63 669.325 C 1735.35 666.294 1736.7 660.01 1735.47 657.232 C 1722.77 651.335 1728.37 648.403 1720.23 643.165 C 1718.62 642.138 1712.5 632.348 1711.1 630.181 C 1717.64 635.582 1719.82 635.927 1727.81 638.167 C 1729.45 641.302 1730.93 647.178 1731.78 650.63 C 1745.08 657.456 1735.83 661.579 1740.16 667.567 L 1742.5 666.709 C 1745.36 662.699 1748.09 659.477 1749.73 654.858 C 1749.5 650.809 1744.7 645.397 1742.06 641.803 z"/>
<path transform="translate(0,0)" fill="rgb(252,251,251)" fill-opacity="0.662745" d="M 1800.43 976.448 C 1813.39 963.477 1812.95 976.453 1819.58 982.244 C 1823.07 983.143 1821.61 983.5 1824.24 981.956 C 1825.36 978.792 1825.91 975.917 1828.37 973.803 L 1831.4 974.762 C 1833.87 983.82 1836.7 991.738 1837.55 1001.07 C 1828.48 1010.91 1825.17 998.669 1818.17 1002.58 C 1813.28 996.806 1816.92 996.717 1815.39 990.724 C 1814.02 985.364 1811.62 977.168 1806.78 974.169 L 1805 974.68 C 1802.33 977.706 1802.35 978.427 1801.1 982.413 L 1800.43 976.448 z"/>
<path transform="translate(0,0)" fill="rgb(252,251,251)" fill-opacity="0.666667" d="M 1805.6 727.294 L 1807.37 724.635 C 1810.47 725.183 1809.01 724.577 1811.6 727.095 C 1813.35 732.735 1812.28 748.57 1809.51 753.769 C 1800.88 769.975 1777 756.515 1765.11 751.659 L 1765.06 751.232 L 1767.12 749.682 C 1774.35 746.053 1773.64 743.135 1779.98 739.158 C 1783.45 742.175 1784.2 751.645 1792.23 754.655 C 1796.07 756.096 1795.56 758.112 1801.05 757.164 C 1808.54 752.191 1805.34 740.272 1806.89 733.099 C 1807.42 730.639 1806.71 730.4 1805.6 727.294 z"/>
<path transform="translate(0,0)" fill="rgb(252,251,251)" fill-opacity="0.756863" d="M 1846.33 720.366 L 1846.61 719.016 C 1847.64 714.049 1848.88 705.436 1855.11 705.443 C 1857.8 707.429 1857.91 709.001 1858.94 712.209 C 1855.95 720.285 1850.35 739.513 1847.81 745.294 C 1846.04 747.204 1844.84 747.274 1842.32 748.093 C 1835.86 746.2 1836.34 741.735 1836.75 735.83 C 1837.25 728.617 1840.99 724.815 1846.33 720.366 z"/>
<path transform="translate(0,0)" fill="rgb(252,251,251)" fill-opacity="0.776471" d="M 1764.24 750.656 C 1772.73 743.243 1760.57 719.336 1773.04 711.854 L 1775.2 712.632 C 1780.58 718.375 1789.06 740.337 1793.46 743.193 L 1795.81 742.205 L 1797.95 744.88 C 1796.86 747.445 1797.06 747.563 1794.89 749.202 C 1785.51 748.775 1780.6 718.967 1767.12 749.682 L 1765.06 751.232 L 1764.24 750.656 z"/>
<path transform="translate(0,0)" fill="url(#Gradient1)" d="M 1759.64 653.857 L 1760.42 656.054 C 1751.66 668.243 1768.09 669.742 1762.29 681.26 C 1759.08 687.631 1748.41 690.8 1747.48 697.304 L 1747.25 696.252 C 1747.08 693.242 1745.46 687.486 1745.45 686.294 C 1745.33 677.543 1746.02 674.734 1743.86 666.166 C 1759.61 660.461 1753.13 658.388 1759.64 653.857 z"/>
<path transform="translate(0,0)" fill="rgb(252,251,251)" fill-opacity="0.0980392" d="M 1652.16 524.325 L 1652.78 524.385 L 1653.92 525.132 C 1653.78 539.575 1660.23 544.879 1650.87 555.029 C 1648.37 564.146 1656.24 562.203 1654.06 574.333 L 1653.54 576.169 C 1650.18 574.372 1649.53 574.032 1646.66 571.6 C 1645.72 569.647 1644.33 569.121 1643.41 567.601 C 1635.58 554.744 1649.75 539.432 1652.16 524.325 z"/>
<path transform="translate(0,0)" fill="rgb(252,251,251)" fill-opacity="0.439216" d="M 1689.41 514.277 L 1690.38 515.633 C 1692.56 502.94 1695.02 489.646 1697.58 476.719 L 1699.06 476.651 C 1709.41 484.409 1702.4 481.018 1708.38 491.047 L 1709.54 490.927 C 1714.45 481.998 1708.1 459.766 1731.71 469.994 L 1732.02 473.031 C 1712.36 468.867 1716.18 489.798 1708.99 498.772 L 1707.28 498.513 C 1705.28 495.05 1705.01 494.125 1703.74 490.273 C 1703.9 493.161 1704.55 496.34 1703.11 498.408 C 1699.63 495.239 1702.6 487.626 1703.76 483.478 L 1703.34 482.023 L 1699.84 482.983 L 1699.42 480.558 L 1698.37 480.413 C 1697.69 486.689 1698.55 492.131 1698.56 498.426 C 1693.64 506.418 1694.77 514.71 1691.81 518.67 C 1690.71 519.026 1690.02 519.43 1689.03 519.316 L 1689.41 514.277 z"/>
<path transform="translate(0,0)" fill="rgb(252,251,251)" fill-opacity="0.321569" d="M 1694.79 468.857 L 1696.04 469.56 L 1699.31 468.475 C 1711 473.884 1712.13 469.266 1721.47 463.339 C 1723.91 461.785 1730.7 464.924 1733.35 466.031 L 1732.92 482.07 C 1732.4 479.283 1732.25 475.916 1732.02 473.031 L 1731.71 469.994 C 1708.1 459.766 1714.45 481.998 1709.54 490.927 L 1708.38 491.047 C 1702.4 481.018 1709.41 484.409 1699.06 476.651 L 1697.58 476.719 C 1695.02 489.646 1692.56 502.94 1690.38 515.633 L 1689.41 514.277 C 1690.93 506.534 1690.43 499.782 1691.72 492.2 L 1692.06 492.786 L 1692.73 492.367 C 1693.61 484.549 1694.29 476.71 1694.79 468.857 z"/>
<path transform="translate(0,0)" fill="rgb(252,251,251)" fill-opacity="0.74902" d="M 1801.1 982.413 C 1802.35 978.427 1802.33 977.706 1805 974.68 L 1806.78 974.169 C 1811.62 977.168 1814.02 985.364 1815.39 990.724 C 1816.92 996.717 1813.28 996.806 1818.17 1002.58 C 1814.44 1005.2 1812.89 1006.9 1808.56 1007.22 C 1805.6 1006.33 1806.12 1006.69 1803.56 1005.17 C 1802.52 999.06 1801.3 988.502 1801.1 982.413 z"/>
<path transform="translate(0,0)" fill="rgb(252,251,251)" fill-opacity="0.741176" d="M 1636.51 484.98 C 1641.65 480.031 1652.31 486.009 1659.11 487.971 C 1669.41 495.576 1676.44 511.044 1687.09 519.247 C 1688.36 521.46 1688.29 521.632 1688.9 524.15 L 1687.95 524.794 C 1688.61 523 1688.57 523.923 1688 522.021 L 1685.51 523.168 C 1673.11 514.586 1659.43 494.62 1650.38 487.991 L 1649.67 488.164 C 1651.05 489.311 1650.54 488.601 1651.2 490.304 C 1648.52 491.001 1648.06 491.308 1645.54 489.775 L 1642.79 491.534 C 1640.19 491.481 1640.35 491.399 1638.02 490.126 C 1637.45 488.342 1637 486.792 1636.51 484.98 z"/>
<path transform="translate(0,0)" fill="rgb(252,251,251)" fill-opacity="0.666667" d="M 1820.91 886.99 C 1824.05 896.795 1818.74 913.541 1819.39 924.865 C 1819.78 931.762 1824.38 941.298 1824.33 944.531 C 1821.7 951.703 1826.67 953.657 1829.08 958.837 L 1828.63 960.789 C 1825.73 961.382 1827.09 961.52 1824.41 960.487 C 1822.02 951.13 1813.91 940.808 1811.67 931.921 C 1809.3 922.512 1815.86 912.44 1819.6 904.763 C 1820.35 903.219 1820.76 889.808 1820.91 886.99 z"/>
<path transform="translate(0,0)" fill="rgb(252,251,251)" fill-opacity="0.709804" d="M 1804.07 727.953 L 1805.6 727.294 C 1806.71 730.4 1807.42 730.639 1806.89 733.099 C 1805.34 740.272 1808.54 752.191 1801.05 757.164 C 1795.56 758.112 1796.07 756.096 1792.23 754.655 C 1784.2 751.645 1783.45 742.175 1779.98 739.158 C 1773.64 743.135 1774.35 746.053 1767.12 749.682 C 1780.6 718.967 1785.51 748.775 1794.89 749.202 C 1797.06 747.563 1796.86 747.445 1797.95 744.88 C 1800.03 739.251 1802.07 733.608 1804.07 727.953 z"/>
<path transform="translate(0,0)" fill="rgb(252,251,251)" fill-opacity="0.654902" d="M 1653.92 525.132 C 1660.04 529.63 1660.16 542.674 1660.84 549.787 L 1662.86 550.214 C 1664.63 547.246 1664.83 546.185 1667.41 544.074 C 1674.64 552.557 1663.75 557.397 1658.99 560.771 C 1658.22 566.82 1658.36 569.944 1654.06 574.333 C 1656.24 562.203 1648.37 564.146 1650.87 555.029 C 1660.23 544.879 1653.78 539.575 1653.92 525.132 z"/>
<path transform="translate(0,0)" fill="rgb(252,251,251)" fill-opacity="0.827451" d="M 1740.74 582.143 C 1742.99 592.355 1747.12 606.469 1748.75 616.11 C 1730.03 619.633 1739.85 593.344 1731.12 588.126 C 1734.14 583.196 1734.41 583.868 1740.74 582.143 z"/>
<path transform="translate(0,0)" fill="rgb(252,251,251)" fill-opacity="0.188235" d="M 1693.26 449.48 C 1693.81 455.824 1693.85 460.21 1693.8 466.583 C 1705.24 450.373 1713.81 449.386 1730.7 460.183 L 1732.62 459.977 L 1734.02 456.542 C 1734 457.988 1733.86 462.133 1734.05 463.33 C 1729.29 462.642 1727.53 461.781 1723.19 459.657 C 1713.63 459.943 1712.28 468.54 1701.74 461.434 C 1698.97 464.154 1697.26 465.88 1694.79 468.857 C 1694.29 476.71 1693.61 484.549 1692.73 492.367 L 1692.06 492.786 L 1691.72 492.2 C 1692.53 477.972 1693.04 463.729 1693.26 449.48 z"/>
<path transform="translate(0,0)" fill="rgb(252,251,251)" fill-opacity="0.74902" d="M 1664.2 584.165 C 1665.75 582.406 1667.16 580.605 1668.5 578.685 C 1674.5 579.887 1687.14 591.794 1691.24 596.407 L 1691.22 598.37 C 1684.43 598.73 1686.88 595.261 1681.82 598.393 C 1679.71 597.459 1666.92 586.467 1664.2 584.165 z"/>
<path transform="translate(0,0)" fill="rgb(252,251,251)" fill-opacity="0.352941" d="M 1796.35 926.243 C 1797.78 919.077 1798.95 912.493 1801.24 905.54 C 1801.54 914.394 1800.3 923.349 1800.42 932.332 C 1800.56 942.495 1805.27 961.326 1802.89 970.568 L 1801.55 971.828 L 1800.07 968.36 C 1799.83 955.363 1796.58 940.649 1796.35 926.243 z"/>
<path transform="translate(0,0)" fill="rgb(252,251,251)" fill-opacity="0.690196" d="M 1632.53 489.444 L 1636.51 484.98 C 1637 486.792 1637.45 488.342 1638.02 490.126 C 1640.35 491.399 1640.19 491.481 1642.79 491.534 C 1654.44 501.482 1648.01 510.04 1657.17 514.104 C 1656.67 517.83 1656.67 518.181 1656.93 521.933 L 1656.13 523.052 C 1650.01 511.407 1640.72 499.762 1632.53 489.444 z"/>
<path transform="translate(0,0)" fill="rgb(252,251,251)" fill-opacity="0.890196" d="M 1736.45 558.939 L 1740.74 582.143 C 1734.41 583.868 1734.14 583.196 1731.12 588.126 L 1729.69 590.097 L 1728.61 589.288 C 1727.26 581.818 1731.15 564.373 1736.45 558.939 z"/>
<path transform="translate(0,0)" fill="rgb(252,251,251)" fill-opacity="0.490196" d="M 1281.09 1771.88 C 1282.48 1770.11 1284.92 1767.34 1287.05 1766.89 C 1292.76 1765.69 1308.91 1761.17 1313.87 1763.27 C 1315.75 1766.15 1315.61 1765.94 1315.75 1769.4 L 1300.24 1774.41 L 1301.37 1771.91 C 1293.73 1768.47 1289.38 1770.21 1281.09 1771.88 z"/>
<path transform="translate(0,0)" fill="rgb(252,251,251)" fill-opacity="0.254902" d="M 1694.79 468.857 C 1697.26 465.88 1698.97 464.154 1701.74 461.434 C 1712.28 468.54 1713.63 459.943 1723.19 459.657 C 1727.53 461.781 1729.29 462.642 1734.05 463.33 L 1733.35 466.031 C 1730.7 464.924 1723.91 461.785 1721.47 463.339 C 1712.13 469.266 1711 473.884 1699.31 468.475 L 1696.04 469.56 L 1694.79 468.857 z"/>
<path transform="translate(0,0)" fill="rgb(252,251,251)" fill-opacity="0.509804" d="M 1758.75 651.215 L 1755.97 652.073 C 1745.82 648.603 1746.87 629.279 1749.69 620.621 C 1752.3 633.846 1753.86 638.775 1758.75 651.215 z"/>
<path transform="translate(0,0)" fill="rgb(252,251,251)" fill-opacity="0.513725" d="M 1281.09 1771.88 C 1289.38 1770.21 1293.73 1768.47 1301.37 1771.91 L 1300.24 1774.41 C 1292.58 1776.57 1287.43 1778.7 1280.01 1781.75 L 1279.1 1780.13 C 1279.11 1775.71 1279.16 1775.93 1281.09 1771.88 z"/>
<path transform="translate(0,0)" fill="rgb(252,251,251)" fill-opacity="0.980392" d="M 1840.53 772.319 L 1838.17 771.769 C 1832.56 766.286 1831.77 754.618 1839.91 753.979 C 1842.66 755.59 1842.42 755.881 1843.84 758.857 L 1840.53 772.319 z"/>
<path transform="translate(0,0)" fill="rgb(252,251,251)" fill-opacity="0.0235294" d="M 356.935 1380.45 C 361.645 1376.46 358.499 1375.04 362.563 1372.05 L 363.412 1379.12 L 362.38 1380.83 C 363.007 1387.84 363.42 1393.02 356.139 1395.97 C 354.891 1394.59 356.916 1387.39 356.936 1382.23 L 356.935 1380.45 z"/>
<path transform="translate(0,0)" fill="rgb(252,251,251)" fill-opacity="0.662745" d="M 1833.86 803.42 C 1833.74 803.427 1830.15 804.566 1828.71 804.732 L 1827.72 803.463 C 1827.13 798.726 1828.02 790.086 1832.38 787.463 C 1834.86 789.349 1834.92 791.217 1835.71 794.304 L 1833.86 803.42 z"/>
<path transform="translate(0,0)" fill="rgb(252,251,251)" fill-opacity="0.737255" d="M 1654.06 574.333 C 1658.36 569.944 1658.22 566.82 1658.99 560.771 C 1658.88 569.651 1667.32 575.813 1662.12 579.943 L 1662.7 583.021 C 1659.62 580.992 1656.48 578.443 1653.54 576.169 L 1654.06 574.333 z"/>
<path transform="translate(0,0)" fill="rgb(252,251,251)" fill-opacity="0.47451" d="M 1720.23 643.165 C 1728.37 648.403 1722.77 651.335 1735.47 657.232 C 1736.7 660.01 1735.35 666.294 1734.63 669.325 C 1729.71 660.687 1724.65 652.071 1720.23 643.165 z"/>
<path transform="translate(0,0)" fill="rgb(252,251,251)" fill-opacity="0.690196" d="M 1824.33 944.531 C 1827.34 945.883 1827.04 946.178 1830.06 946.171 L 1830.87 955.941 L 1829.08 958.837 C 1826.67 953.657 1821.7 951.703 1824.33 944.531 z"/>
<path transform="translate(0,0)" fill="rgb(252,251,251)" fill-opacity="0.223529" d="M 361.464 1366.01 C 362.045 1368.46 362.316 1369.57 362.563 1372.05 C 358.499 1375.04 361.645 1376.46 356.935 1380.45 C 354.901 1373.92 354.056 1368.63 361.464 1366.01 z"/>
<path transform="translate(0,0)" fill="rgb(252,251,251)" fill-opacity="0.737255" d="M 1657.17 514.104 L 1659.83 512.613 L 1661.69 513.572 C 1662.75 517.325 1662.58 517.912 1662.42 521.901 L 1660.96 521.797 C 1659.73 515.897 1660.93 517.087 1657.17 514.104 z"/>
</svg>